<svg width="122" height="183" viewBox="0 0 122 183" fill="none" xmlns="http://www.w3.org/2000/svg">
<path d="M61.04 8C55.0113 8 49.2294 10.3949 44.9665 14.6579C40.7035 18.9209 38.3086 24.7027 38.3086 30.7314V91.3486C38.3086 97.3773 40.7035 103.159 44.9665 107.422C49.2294 111.685 55.0113 114.08 61.04 114.08C67.0688 114.08 72.8506 111.685 77.1136 107.422C81.3765 103.159 83.7715 97.3773 83.7715 91.3486V30.7314C83.7715 24.7027 81.3765 18.9209 77.1136 14.6579C72.8506 10.3949 67.0688 8 61.04 8Z" stroke="black" stroke-width="15.1543" stroke-linecap="round" stroke-linejoin="round"/>
<path d="M114.08 76.1943V91.3486C114.08 105.416 108.492 118.907 98.5449 128.854C88.598 138.8 75.1071 144.389 61.04 144.389C46.9729 144.389 33.482 138.8 23.5351 128.854C13.5881 118.907 8 105.416 8 91.3486V76.1943" stroke="black" stroke-width="15.1543" stroke-linecap="round" stroke-linejoin="round"/>
<path d="M61.04 144.389V174.697" stroke="black" stroke-width="15.1543" stroke-linecap="round" stroke-linejoin="round"/>
<path d="M30.7314 174.697H91.3486" stroke="black" stroke-width="15.1543" stroke-linecap="round" stroke-linejoin="round"/>
</svg>
