<svg width="146" height="17" viewBox="0 0 146 17" fill="none" xmlns="http://www.w3.org/2000/svg">
<path d="M6.54128 9.05786L6.90427 6.14362H4.63467V4.25248C4.63467 3.45519 4.95172 2.67804 5.9682 2.67804H7V0.196883C7 0.196883 6.06367 0 5.16844 0C3.29936 0 2.07764 1.39579 2.07764 3.92255V6.14362H0V9.05786H2.07764V16.1029H4.63467V9.05786H6.54128Z" fill="white"/>
<path d="M45.0018 3.92286C42.7316 3.92286 40.9005 5.76616 40.9005 8.05143C40.9005 10.3367 42.7316 12.18 45.0018 12.18C47.2719 12.18 49.1031 10.3367 49.1031 8.05143C49.1031 5.76616 47.2719 3.92286 45.0018 3.92286ZM45.0018 10.7355C43.5347 10.7355 42.3354 9.53182 42.3354 8.05143C42.3354 6.57104 43.5312 5.36732 45.0018 5.36732C46.4724 5.36732 47.6682 6.57104 47.6682 8.05143C47.6682 9.53182 46.4688 10.7355 45.0018 10.7355ZM50.2274 3.75398C50.2274 4.28936 49.7991 4.71695 49.2708 4.71695C48.739 4.71695 48.3142 4.28577 48.3142 3.75398C48.3142 3.22219 48.7426 2.79101 49.2708 2.79101C49.7991 2.79101 50.2274 3.22219 50.2274 3.75398ZM52.9438 4.73133C52.8831 3.44137 52.5904 2.29874 51.6516 1.35733C50.7165 0.415911 49.5814 0.12127 48.2999 0.0565927C46.9793 -0.0188642 43.0207 -0.0188642 41.7001 0.0565927C40.4222 0.117677 39.2871 0.412318 38.3484 1.35373C37.4096 2.29515 37.1205 3.43778 37.0562 4.72773C36.9813 6.05721 36.9813 10.0421 37.0562 11.3715C37.1169 12.6615 37.4096 13.8041 38.3484 14.7455C39.2871 15.6869 40.4186 15.9816 41.7001 16.0463C43.0207 16.1217 46.9793 16.1217 48.2999 16.0463C49.5814 15.9852 50.7165 15.6905 51.6516 14.7455C52.5868 13.8041 52.8795 12.6615 52.9438 11.3715C53.0187 10.0421 53.0187 6.0608 52.9438 4.73133ZM51.2376 12.798C50.9592 13.5023 50.4202 14.0449 49.717 14.3287C48.664 14.7491 46.1654 14.6521 45.0018 14.6521C43.8381 14.6521 41.336 14.7455 40.2866 14.3287C39.5869 14.0485 39.048 13.5059 38.766 12.798C38.3484 11.738 38.4447 9.22281 38.4447 8.05143C38.4447 6.88005 38.3519 4.36123 38.766 3.30483C39.0444 2.60057 39.5834 2.058 40.2866 1.77413C41.3395 1.35373 43.8381 1.45075 45.0018 1.45075C46.1654 1.45075 48.6676 1.35733 49.717 1.77413C50.4166 2.0544 50.9556 2.59697 51.2376 3.30483C51.6552 4.36482 51.5588 6.88005 51.5588 8.05143C51.5588 9.22281 51.6552 11.7416 51.2376 12.798Z" fill="white"/>
<path d="M98 8.05143C98 12.4992 94.6431 16.1029 90.5 16.1029C89.7258 16.1029 88.9819 15.9762 88.2802 15.7425C88.5857 15.2068 89.0423 14.3302 89.2117 13.6322C89.3024 13.2556 89.6774 11.7168 89.6774 11.7168C89.9224 12.2167 90.6361 12.642 91.3952 12.642C93.6573 12.642 95.2873 10.4084 95.2873 7.63262C95.2873 4.9737 93.2641 2.98357 90.6633 2.98357C87.4274 2.98357 85.7067 5.31459 85.7067 7.85664C85.7067 9.03838 86.2933 10.5091 87.2278 10.9766C87.37 11.048 87.4456 11.0155 87.4788 10.8694C87.503 10.759 87.63 10.2104 87.6875 9.95715C87.7056 9.87599 87.6966 9.80456 87.6361 9.72664C87.3306 9.32083 87.0827 8.58062 87.0827 7.8891C87.0827 6.11324 88.3347 4.39582 90.4698 4.39582C92.3115 4.39582 93.6028 5.74314 93.6028 7.67158C93.6028 9.85001 92.5776 11.3597 91.244 11.3597C90.5091 11.3597 89.9556 10.7071 90.1341 9.9052C90.3458 8.94747 90.754 7.91507 90.754 7.22356C90.754 6.60672 90.4456 6.09052 89.8044 6.09052C89.0514 6.09052 88.4466 6.92488 88.4466 8.04494C88.4466 8.75917 88.6704 9.23966 88.6704 9.23966C88.6704 9.23966 87.9294 12.6096 87.7933 13.2394C87.6421 13.9342 87.7026 14.9146 87.7661 15.5509C84.9778 14.3789 83 11.4635 83 8.05143C83 3.60366 86.3569 0 90.5 0C94.6431 0 98 3.60366 98 8.05143Z" fill="white"/>
<path d="M144.15 4.01312C144.161 4.18924 144.161 4.36539 144.161 4.54151C144.161 9.91329 140.449 16.1029 133.665 16.1029C131.575 16.1029 129.633 15.4361 128 14.2787C128.297 14.3164 128.582 14.329 128.891 14.329C130.615 14.329 132.203 13.6874 133.471 12.593C131.849 12.5552 130.49 11.3852 130.022 9.77493C130.25 9.81265 130.478 9.83782 130.718 9.83782C131.05 9.83782 131.381 9.78748 131.689 9.69946C129.999 9.32202 128.731 7.68659 128.731 5.71147V5.66117C129.222 5.9631 129.793 6.1518 130.398 6.17694C129.405 5.44726 128.754 4.20182 128.754 2.79281C128.754 2.038 128.936 1.34608 129.256 0.742222C131.072 3.20797 133.802 4.81823 136.863 4.99438C136.806 4.69245 136.772 4.37798 136.772 4.06346C136.772 1.82413 138.416 0 140.461 0C141.523 0 142.482 0.490633 143.156 1.2832C143.99 1.10708 144.789 0.767393 145.497 0.301931C145.223 1.24548 144.641 2.03804 143.876 2.54122C144.618 2.4532 145.338 2.22671 146 1.91223C145.498 2.71734 144.869 3.43439 144.15 4.01312Z" fill="white"/>
</svg>
