<svg width="146" height="15" viewBox="0 0 146 15" fill="none" xmlns="http://www.w3.org/2000/svg">
<path d="M6.54128 8.4375L6.90427 5.72285H4.63467V3.96123C4.63467 3.21855 4.95172 2.49463 5.9682 2.49463H7V0.183398C7 0.183398 6.06367 0 5.16844 0C3.29936 0 2.07764 1.3002 2.07764 3.65391V5.72285H0V8.4375H2.07764V15H4.63467V8.4375H6.54128Z" fill="white"/>
<path d="M45.0018 3.65419C42.7316 3.65419 40.9005 5.37125 40.9005 7.5C40.9005 9.62875 42.7316 11.3458 45.0018 11.3458C47.2719 11.3458 49.1031 9.62875 49.1031 7.5C49.1031 5.37125 47.2719 3.65419 45.0018 3.65419ZM45.0018 10.0003C43.5347 10.0003 42.3354 8.879 42.3354 7.5C42.3354 6.121 43.5312 4.99972 45.0018 4.99972C46.4724 4.99972 47.6682 6.121 47.6682 7.5C47.6682 8.879 46.4688 10.0003 45.0018 10.0003ZM50.2274 3.49688C50.2274 3.99559 49.7991 4.3939 49.2708 4.3939C48.739 4.3939 48.3142 3.99225 48.3142 3.49688C48.3142 3.00151 48.7426 2.59985 49.2708 2.59985C49.7991 2.59985 50.2274 3.00151 50.2274 3.49688ZM52.9438 4.40729C52.8831 3.20568 52.5904 2.1413 51.6516 1.26436C50.7165 0.387426 49.5814 0.112964 48.2999 0.0527167C46.9793 -0.0175722 43.0207 -0.0175722 41.7001 0.0527167C40.4222 0.109617 39.2871 0.384079 38.3484 1.26102C37.4096 2.13796 37.1205 3.20233 37.0562 4.40394C36.9813 5.64236 36.9813 9.35429 37.0562 10.5927C37.1169 11.7943 37.4096 12.8587 38.3484 13.7356C39.2871 14.6126 40.4186 14.887 41.7001 14.9473C43.0207 15.0176 46.9793 15.0176 48.2999 14.9473C49.5814 14.8904 50.7165 14.6159 51.6516 13.7356C52.5868 12.8587 52.8795 11.7943 52.9438 10.5927C53.0187 9.35429 53.0187 5.64571 52.9438 4.40729ZM51.2376 11.9215C50.9592 12.5775 50.4202 13.083 49.717 13.3474C48.664 13.739 46.1654 13.6486 45.0018 13.6486C43.8381 13.6486 41.336 13.7356 40.2866 13.3474C39.5869 13.0863 39.048 12.5809 38.766 11.9215C38.3484 10.9341 38.4447 8.59115 38.4447 7.5C38.4447 6.40885 38.3519 4.06253 38.766 3.07849C39.0444 2.42246 39.5834 1.91705 40.2866 1.65263C41.3395 1.26102 43.8381 1.35139 45.0018 1.35139C46.1654 1.35139 48.6676 1.26436 49.717 1.65263C50.4166 1.9137 50.9556 2.41911 51.2376 3.07849C51.6552 4.06588 51.5588 6.40885 51.5588 7.5C51.5588 8.59115 51.6552 10.9375 51.2376 11.9215Z" fill="white"/>
<path d="M98 7.5C98 11.6431 94.6431 15 90.5 15C89.7258 15 88.9819 14.8821 88.2802 14.6643C88.5857 14.1653 89.0423 13.3488 89.2117 12.6986C89.3024 12.3478 89.6774 10.9143 89.6774 10.9143C89.9224 11.38 90.6361 11.7762 91.3952 11.7762C93.6573 11.7762 95.2873 9.69556 95.2873 7.10988C95.2873 4.63306 93.2641 2.77923 90.6633 2.77923C87.4274 2.77923 85.7067 4.9506 85.7067 7.31855C85.7067 8.41935 86.2933 9.78931 87.2278 10.2248C87.37 10.2913 87.4456 10.2611 87.4788 10.125C87.503 10.0222 87.63 9.51109 87.6875 9.2752C87.7056 9.1996 87.6966 9.13306 87.6361 9.06048C87.3306 8.68246 87.0827 7.99294 87.0827 7.34879C87.0827 5.69456 88.3347 4.09476 90.4698 4.09476C92.3115 4.09476 93.6028 5.3498 93.6028 7.14617C93.6028 9.1754 92.5776 10.5817 91.244 10.5817C90.5091 10.5817 89.9556 9.97379 90.1341 9.22681C90.3458 8.33468 90.754 7.37298 90.754 6.72883C90.754 6.15423 90.4456 5.67339 89.8044 5.67339C89.0514 5.67339 88.4466 6.4506 88.4466 7.49395C88.4466 8.15927 88.6704 8.60685 88.6704 8.60685C88.6704 8.60685 87.9294 11.746 87.7933 12.3327C87.6421 12.9798 87.7026 13.8931 87.7661 14.4859C84.9778 13.3942 83 10.6784 83 7.5C83 3.35685 86.3569 0 90.5 0C94.6431 0 98 3.35685 98 7.5Z" fill="white"/>
<path d="M144.15 3.73827C144.161 3.90232 144.161 4.06641 144.161 4.23047C144.161 9.23435 140.449 15 133.665 15C131.575 15 129.633 14.3789 128 13.3008C128.297 13.3359 128.582 13.3477 128.891 13.3477C130.615 13.3477 132.203 12.75 133.471 11.7305C131.849 11.6953 130.49 10.6055 130.022 9.10547C130.25 9.1406 130.478 9.16405 130.718 9.16405C131.05 9.16405 131.381 9.11715 131.689 9.03516C129.999 8.68357 128.731 7.16015 128.731 5.32031V5.27345C129.222 5.5547 129.793 5.73048 130.398 5.75389C129.405 5.07419 128.754 3.91405 128.754 2.60154C128.754 1.89842 128.936 1.25389 129.256 0.691389C131.072 2.98826 133.802 4.48824 136.863 4.65233C136.806 4.37108 136.772 4.07814 136.772 3.78516C136.772 1.6992 138.416 0 140.461 0C141.523 0 142.482 0.45703 143.156 1.19531C143.99 1.03126 144.789 0.714835 145.497 0.281252C145.223 1.16018 144.641 1.89846 143.876 2.36718C144.618 2.28519 145.338 2.0742 146 1.78126C145.498 2.53123 144.869 3.19917 144.15 3.73827Z" fill="white"/>
</svg>
