<svg width="8" height="5" viewBox="0 0 8 5" fill="none" xmlns="http://www.w3.org/2000/svg">
<mask id="path-1-inside-1_114_19" fill="white">
<path d="M3.57639 4.82938L0.175329 1.538C-0.0597449 1.3105 -0.0597449 0.942643 0.175329 0.71757L0.740505 0.17062C0.975579 -0.0568732 1.3557 -0.0568732 1.58827 0.17062L3.99902 2.50363L6.40978 0.17062C6.64485 -0.0568732 7.02497 -0.0568732 7.25754 0.17062L7.82272 0.71757C8.05779 0.945063 8.05779 1.31292 7.82272 1.538L4.42166 4.82938C4.19158 5.05687 3.81147 5.05687 3.57639 4.82938Z"/>
</mask>
<path d="M3.57639 4.82938L5.66267 2.67358L5.66267 2.67358L3.57639 4.82938ZM0.175329 1.538L-1.91095 3.69379L-1.91095 3.69379L0.175329 1.538ZM0.175329 0.71757L2.25005 2.88448L2.25584 2.87894L2.2616 2.87337L0.175329 0.71757ZM0.740505 0.17062L2.82678 2.32642L2.82678 2.32642L0.740505 0.17062ZM1.58827 0.17062L-0.509499 2.31523L-0.503767 2.32084L-0.498005 2.32642L1.58827 0.17062ZM3.99902 2.50363L1.91275 4.65943L3.99902 6.67842L6.0853 4.65943L3.99902 2.50363ZM6.40978 0.17062L4.3235 -1.98518L4.3235 -1.98518L6.40978 0.17062ZM7.25754 0.17062L5.15977 2.31523L5.1655 2.32084L5.17127 2.32641L7.25754 0.17062ZM7.82272 0.71757L5.73644 2.87337L5.73644 2.87337L7.82272 0.71757ZM7.82272 1.538L5.74799 -0.628917L5.7422 -0.623374L5.73644 -0.6178L7.82272 1.538ZM4.42166 4.82938L2.33538 2.67358L2.32379 2.6848L2.31233 2.69614L4.42166 4.82938ZM5.66267 2.67358L2.2616 -0.6178L-1.91095 3.69379L1.49012 6.98518L5.66267 2.67358ZM2.2616 -0.6178C3.23827 0.327375 3.25524 1.92207 2.25005 2.88448L-1.8994 -1.44934C-3.37473 -0.0367804 -3.35776 2.29363 -1.91095 3.69379L2.2616 -0.6178ZM2.2616 2.87337L2.82678 2.32642L-1.34577 -1.98518L-1.91095 -1.43823L2.2616 2.87337ZM2.82678 2.32642C1.905 3.21847 0.430107 3.23431 -0.509499 2.31523L3.68604 -1.97399C2.28129 -3.34806 0.0461565 -3.33222 -1.34577 -1.98518L2.82678 2.32642ZM-0.498005 2.32642L1.91275 4.65943L6.0853 0.347835L3.67455 -1.98518L-0.498005 2.32642ZM6.0853 4.65943L8.49605 2.32642L4.3235 -1.98518L1.91275 0.347835L6.0853 4.65943ZM8.49605 2.32642C7.57427 3.21847 6.09938 3.23431 5.15977 2.31523L9.35531 -1.97399C7.95056 -3.34806 5.71543 -3.33222 4.3235 -1.98518L8.49605 2.32642ZM5.17127 2.32641L5.73644 2.87337L9.90899 -1.43823L9.34382 -1.98518L5.17127 2.32641ZM5.73644 2.87337C4.75977 1.92819 4.74281 0.333501 5.74799 -0.628917L9.89744 3.70491C11.3728 2.29235 11.3558 -0.0380661 9.90899 -1.43823L5.73644 2.87337ZM5.73644 -0.6178L2.33538 2.67358L6.50793 6.98518L9.90899 3.69379L5.73644 -0.6178ZM2.31233 2.69614C3.26343 1.75569 4.7473 1.78774 5.66267 2.67358L1.49012 6.98518C2.87563 8.32601 5.11973 8.35806 6.53099 6.96262L2.31233 2.69614Z" fill="black" mask="url(#path-1-inside-1_114_19)"/>
</svg>
