<svg width="23" height="25" viewBox="0 0 23 25" fill="none" xmlns="http://www.w3.org/2000/svg">
<path d="M11.8262 10.332C10.6006 11.4893 9.83399 13.1299 9.83399 14.9512C9.83399 16.3818 10.3076 17.7002 11.1035 18.7598L8.68652 21.1914C8.47168 21.1133 8.24219 21.0693 8.00293 21.0693C7.47559 21.0693 6.98242 21.2744 6.61133 21.6455C6.24024 22.0166 6.03516 22.5146 6.03516 23.042C6.03516 23.5693 6.24024 24.0625 6.61133 24.4336C6.98242 24.8047 7.48047 25 8.00293 25C8.53027 25 9.02344 24.8096 9.39942 24.4336C9.77051 24.0625 9.97559 23.5645 9.97559 23.042C9.97559 22.8369 9.94629 22.6416 9.88281 22.4512L12.3242 20C13.3984 20.8252 14.7363 21.3135 16.1963 21.3135C19.707 21.3135 22.5439 18.4668 22.5439 14.9561C22.5439 11.7725 20.2148 9.13574 17.1631 8.67188V5.66406C18.0176 5.30273 18.54 4.50195 18.54 3.56934C18.54 2.29492 17.5195 1.23047 16.2451 1.23047C14.9707 1.23047 13.9648 2.29492 13.9648 3.56934C13.9648 4.50195 14.4873 5.30273 15.3418 5.66406V8.65234C14.5996 8.75488 13.8965 8.97949 13.2568 9.31641C11.9092 8.2959 7.51953 5.13184 5.00977 3.22266C5.06836 3.00781 5.10742 2.7832 5.10742 2.54883C5.10742 1.14258 3.95996 0 2.54883 0C1.14258 0 0 1.14258 0 2.54883C0 3.95996 1.14258 5.10254 2.54883 5.10254C3.02734 5.10254 3.47168 4.96094 3.85742 4.73145L11.8262 10.332ZM16.1963 18.3203C14.3359 18.3203 12.8271 16.8115 12.8271 14.9512C12.8271 13.0908 14.3359 11.582 16.1963 11.582C18.0566 11.582 19.5654 13.0908 19.5654 14.9512C19.5654 16.8115 18.0566 18.3203 16.1963 18.3203Z" fill="black"/>
</svg>
