<svg width="8" height="5" viewBox="0 0 8 5" fill="none" xmlns="http://www.w3.org/2000/svg">
<mask id="path-1-inside-1_114_25" fill="white">
<path d="M3.57737 4.82938L0.176305 1.538C-0.0587684 1.3105 -0.0587684 0.942643 0.176305 0.71757L0.741482 0.17062C0.976555 -0.0568732 1.35667 -0.0568732 1.58925 0.17062L4 2.50363L6.41075 0.17062C6.64583 -0.0568732 7.02595 -0.0568732 7.25852 0.17062L7.82369 0.71757C8.05877 0.945063 8.05877 1.31292 7.82369 1.538L4.42263 4.82938C4.19256 5.05687 3.81244 5.05687 3.57737 4.82938Z"/>
</mask>
<path d="M3.57737 4.82938L5.66364 2.67358L5.66364 2.67358L3.57737 4.82938ZM0.176305 1.538L-1.90997 3.69379L-1.90997 3.69379L0.176305 1.538ZM0.176305 0.71757L2.25103 2.88448L2.25682 2.87894L2.26258 2.87337L0.176305 0.71757ZM0.741482 0.17062L2.82776 2.32642L2.82776 2.32642L0.741482 0.17062ZM1.58925 0.17062L-0.508523 2.31523L-0.502791 2.32084L-0.497029 2.32642L1.58925 0.17062ZM4 2.50363L1.91372 4.65943L4 6.67842L6.08628 4.65943L4 2.50363ZM6.41075 0.17062L4.32448 -1.98518L4.32448 -1.98518L6.41075 0.17062ZM7.25852 0.17062L5.16075 2.31523L5.16648 2.32084L5.17224 2.32641L7.25852 0.17062ZM7.82369 0.71757L5.73742 2.87337L5.73742 2.87337L7.82369 0.71757ZM7.82369 1.538L5.74897 -0.628917L5.74318 -0.623374L5.73742 -0.6178L7.82369 1.538ZM4.42263 4.82938L2.33636 2.67358L2.32477 2.6848L2.3133 2.69614L4.42263 4.82938ZM5.66364 2.67358L2.26258 -0.6178L-1.90997 3.69379L1.49109 6.98518L5.66364 2.67358ZM2.26258 -0.6178C3.23925 0.327375 3.25621 1.92207 2.25103 2.88448L-1.89842 -1.44934C-3.37375 -0.0367804 -3.35679 2.29363 -1.90997 3.69379L2.26258 -0.6178ZM2.26258 2.87337L2.82776 2.32642L-1.34479 -1.98518L-1.90997 -1.43823L2.26258 2.87337ZM2.82776 2.32642C1.90598 3.21847 0.431083 3.23431 -0.508523 2.31523L3.68702 -1.97399C2.28226 -3.34806 0.0471331 -3.33222 -1.34479 -1.98518L2.82776 2.32642ZM-0.497029 2.32642L1.91372 4.65943L6.08628 0.347835L3.67552 -1.98518L-0.497029 2.32642ZM6.08628 4.65943L8.49703 2.32642L4.32448 -1.98518L1.91372 0.347835L6.08628 4.65943ZM8.49703 2.32642C7.57525 3.21847 6.10036 3.23431 5.16075 2.31523L9.35629 -1.97399C7.95154 -3.34806 5.7164 -3.33222 4.32448 -1.98518L8.49703 2.32642ZM5.17224 2.32641L5.73742 2.87337L9.90997 -1.43823L9.34479 -1.98518L5.17224 2.32641ZM5.73742 2.87337C4.76075 1.92819 4.74379 0.333501 5.74897 -0.628917L9.89842 3.70491C11.3737 2.29235 11.3568 -0.0380661 9.90997 -1.43823L5.73742 2.87337ZM5.73742 -0.6178L2.33636 2.67358L6.50891 6.98518L9.90997 3.69379L5.73742 -0.6178ZM2.3133 2.69614C3.26441 1.75569 4.74828 1.78774 5.66364 2.67358L1.49109 6.98518C2.87661 8.32601 5.12071 8.35806 6.53196 6.96262L2.3133 2.69614Z" fill="black" mask="url(#path-1-inside-1_114_25)"/>
</svg>
