<svg width="50" height="45" viewBox="0 0 50 45" fill="none" xmlns="http://www.w3.org/2000/svg">
<path d="M45.3125 22.5H37.5V16.0714C37.5 12.5257 40.3027 9.64286 43.75 9.64286H44.5312C45.8301 9.64286 46.875 8.56808 46.875 7.23214V2.41071C46.875 1.07478 45.8301 0 44.5312 0H43.75C35.1172 0 28.125 7.19196 28.125 16.0714V40.1786C28.125 42.8404 30.2246 45 32.8125 45H45.3125C47.9004 45 50 42.8404 50 40.1786V27.3214C50 24.6596 47.9004 22.5 45.3125 22.5ZM17.1875 22.5H9.375V16.0714C9.375 12.5257 12.1777 9.64286 15.625 9.64286H16.4062C17.7051 9.64286 18.75 8.56808 18.75 7.23214V2.41071C18.75 1.07478 17.7051 0 16.4062 0H15.625C6.99219 0 0 7.19196 0 16.0714V40.1786C0 42.8404 2.09961 45 4.6875 45H17.1875C19.7754 45 21.875 42.8404 21.875 40.1786V27.3214C21.875 24.6596 19.7754 22.5 17.1875 22.5Z" fill="black"/>
</svg>
