<svg width="23" height="25" viewBox="0 0 23 25" fill="none" xmlns="http://www.w3.org/2000/svg">
<path d="M11.8267 10.332C10.6011 11.4893 9.83447 13.1299 9.83447 14.9512C9.83447 16.3818 10.3081 17.7002 11.104 18.7598L8.68701 21.1914C8.47217 21.1133 8.24268 21.0693 8.00342 21.0693C7.47608 21.0693 6.98291 21.2744 6.61182 21.6455C6.24072 22.0166 6.03565 22.5146 6.03565 23.042C6.03565 23.5693 6.24072 24.0625 6.61182 24.4336C6.98291 24.8047 7.48096 25 8.00342 25C8.53076 25 9.02393 24.8096 9.3999 24.4336C9.771 24.0625 9.97608 23.5645 9.97608 23.042C9.97608 22.8369 9.94678 22.6416 9.8833 22.4512L12.3247 20C13.3989 20.8252 14.7368 21.3135 16.1968 21.3135C19.7075 21.3135 22.5444 18.4668 22.5444 14.9561C22.5444 11.7725 20.2153 9.13574 17.1636 8.67188V5.66406C18.0181 5.30273 18.5405 4.50195 18.5405 3.56934C18.5405 2.29492 17.52 1.23047 16.2456 1.23047C14.9712 1.23047 13.9653 2.29492 13.9653 3.56934C13.9653 4.50195 14.4878 5.30273 15.3423 5.66406V8.65234C14.6001 8.75488 13.897 8.97949 13.2573 9.31641C11.9097 8.2959 7.52002 5.13184 5.01025 3.22266C5.06885 3.00781 5.10791 2.7832 5.10791 2.54883C5.10791 1.14258 3.96045 0 2.54932 0C1.14307 0 0.000488281 1.14258 0.000488281 2.54883C0.000488281 3.95996 1.14307 5.10254 2.54932 5.10254C3.02783 5.10254 3.47217 4.96094 3.85791 4.73145L11.8267 10.332ZM16.1968 18.3203C14.3364 18.3203 12.8276 16.8115 12.8276 14.9512C12.8276 13.0908 14.3364 11.582 16.1968 11.582C18.0571 11.582 19.5659 13.0908 19.5659 14.9512C19.5659 16.8115 18.0571 18.3203 16.1968 18.3203Z" fill="black"/>
</svg>
