<svg width="8" height="5" viewBox="0 0 8 5" fill="none" xmlns="http://www.w3.org/2000/svg">
<mask id="path-1-inside-1_114_13" fill="white">
<path d="M3.57834 4.82938L0.177282 1.538C-0.0577918 1.3105 -0.0577918 0.942643 0.177282 0.71757L0.742458 0.17062C0.977532 -0.0568732 1.35765 -0.0568732 1.59022 0.17062L4.00098 2.50363L6.41173 0.17062C6.6468 -0.0568732 7.02692 -0.0568732 7.2595 0.17062L7.82467 0.71757C8.05974 0.945063 8.05974 1.31292 7.82467 1.538L4.42361 4.82938C4.19354 5.05687 3.81342 5.05687 3.57834 4.82938Z"/>
</mask>
<path d="M3.57834 4.82938L5.66462 2.67358L5.66462 2.67358L3.57834 4.82938ZM0.177282 1.538L-1.90899 3.69379L-1.90899 3.69379L0.177282 1.538ZM0.177282 0.71757L2.25201 2.88448L2.2578 2.87894L2.26356 2.87337L0.177282 0.71757ZM0.742458 0.17062L2.82873 2.32642L2.82873 2.32642L0.742458 0.17062ZM1.59022 0.17062L-0.507546 2.31523L-0.501814 2.32084L-0.496052 2.32642L1.59022 0.17062ZM4.00098 2.50363L1.9147 4.65943L4.00098 6.67842L6.08725 4.65943L4.00098 2.50363ZM6.41173 0.17062L4.32545 -1.98518L4.32545 -1.98518L6.41173 0.17062ZM7.2595 0.17062L5.16173 2.31523L5.16746 2.32084L5.17322 2.32641L7.2595 0.17062ZM7.82467 0.71757L5.7384 2.87337L5.7384 2.87337L7.82467 0.71757ZM7.82467 1.538L5.74995 -0.628917L5.74416 -0.623374L5.7384 -0.6178L7.82467 1.538ZM4.42361 4.82938L2.33733 2.67358L2.32575 2.6848L2.31428 2.69614L4.42361 4.82938ZM5.66462 2.67358L2.26356 -0.6178L-1.90899 3.69379L1.49207 6.98518L5.66462 2.67358ZM2.26356 -0.6178C3.24023 0.327375 3.25719 1.92207 2.25201 2.88448L-1.89744 -1.44934C-3.37277 -0.0367804 -3.35581 2.29363 -1.90899 3.69379L2.26356 -0.6178ZM2.26356 2.87337L2.82873 2.32642L-1.34382 -1.98518L-1.90899 -1.43823L2.26356 2.87337ZM2.82873 2.32642C1.90695 3.21847 0.43206 3.23431 -0.507546 2.31523L3.68799 -1.97399C2.28324 -3.34806 0.0481096 -3.33222 -1.34382 -1.98518L2.82873 2.32642ZM-0.496052 2.32642L1.9147 4.65943L6.08725 0.347835L3.6765 -1.98518L-0.496052 2.32642ZM6.08725 4.65943L8.49801 2.32642L4.32545 -1.98518L1.9147 0.347835L6.08725 4.65943ZM8.498 2.32642C7.57623 3.21847 6.10133 3.23431 5.16173 2.31523L9.35726 -1.97399C7.95251 -3.34806 5.71738 -3.33222 4.32545 -1.98518L8.498 2.32642ZM5.17322 2.32641L5.7384 2.87337L9.91095 -1.43823L9.34577 -1.98518L5.17322 2.32641ZM5.7384 2.87337C4.76173 1.92819 4.74476 0.333501 5.74995 -0.628917L9.8994 3.70491C11.3747 2.29235 11.3578 -0.0380661 9.91095 -1.43823L5.7384 2.87337ZM5.7384 -0.6178L2.33733 2.67358L6.50988 6.98518L9.91095 3.69379L5.7384 -0.6178ZM2.31428 2.69614C3.26539 1.75569 4.74925 1.78774 5.66462 2.67358L1.49207 6.98518C2.87758 8.32601 5.12169 8.35806 6.53294 6.96262L2.31428 2.69614Z" fill="black" mask="url(#path-1-inside-1_114_13)"/>
</svg>
