<svg width="9" height="5" viewBox="0 0 9 5" fill="none" xmlns="http://www.w3.org/2000/svg">
<mask id="path-1-inside-1_114_16" fill="white">
<path d="M3.57932 4.82938L0.178258 1.538C-0.0568152 1.3105 -0.0568152 0.942643 0.178258 0.71757L0.743435 0.17062C0.978508 -0.0568732 1.35863 -0.0568732 1.5912 0.17062L4.00195 2.50363L6.41271 0.17062C6.64778 -0.0568732 7.0279 -0.0568732 7.26047 0.17062L7.82565 0.71757C8.06072 0.945063 8.06072 1.31292 7.82565 1.538L4.42459 4.82938C4.19451 5.05687 3.81439 5.05687 3.57932 4.82938Z"/>
</mask>
<path d="M3.57932 4.82938L5.6656 2.67358L5.6656 2.67358L3.57932 4.82938ZM0.178258 1.538L-1.90802 3.69379L-1.90802 3.69379L0.178258 1.538ZM0.178258 0.71757L2.25298 2.88448L2.25877 2.87894L2.26453 2.87337L0.178258 0.71757ZM0.743435 0.17062L2.82971 2.32642L2.82971 2.32642L0.743435 0.17062ZM1.5912 0.17062L-0.506569 2.31523L-0.500837 2.32084L-0.495075 2.32642L1.5912 0.17062ZM4.00195 2.50363L1.91568 4.65943L4.00195 6.67842L6.08823 4.65943L4.00195 2.50363ZM6.41271 0.17062L4.32643 -1.98518L4.32643 -1.98518L6.41271 0.17062ZM7.26047 0.17062L5.1627 2.31523L5.16843 2.32084L5.1742 2.32641L7.26047 0.17062ZM7.82565 0.71757L5.73937 2.87337L5.73937 2.87337L7.82565 0.71757ZM7.82565 1.538L5.75092 -0.628917L5.74513 -0.623374L5.73937 -0.6178L7.82565 1.538ZM4.42459 4.82938L2.33831 2.67358L2.32672 2.6848L2.31526 2.69614L4.42459 4.82938ZM5.6656 2.67358L2.26453 -0.6178L-1.90802 3.69379L1.49305 6.98518L5.6656 2.67358ZM2.26453 -0.6178C3.2412 0.327375 3.25817 1.92207 2.25298 2.88448L-1.89647 -1.44934C-3.3718 -0.0367804 -3.35483 2.29363 -1.90802 3.69379L2.26453 -0.6178ZM2.26453 2.87337L2.82971 2.32642L-1.34284 -1.98518L-1.90802 -1.43823L2.26453 2.87337ZM2.82971 2.32642C1.90793 3.21847 0.433036 3.23431 -0.506569 2.31523L3.68897 -1.97399C2.28422 -3.34806 0.0490862 -3.33222 -1.34284 -1.98518L2.82971 2.32642ZM-0.495075 2.32642L1.91568 4.65943L6.08823 0.347835L3.67748 -1.98518L-0.495075 2.32642ZM6.08823 4.65943L8.49898 2.32642L4.32643 -1.98518L1.91568 0.347835L6.08823 4.65943ZM8.49898 2.32642C7.5772 3.21847 6.10231 3.23431 5.1627 2.31523L9.35824 -1.97399C7.95349 -3.34806 5.71836 -3.33222 4.32643 -1.98518L8.49898 2.32642ZM5.1742 2.32641L5.73937 2.87337L9.91192 -1.43823L9.34675 -1.98518L5.1742 2.32641ZM5.73937 2.87337C4.7627 1.92819 4.74574 0.333501 5.75092 -0.628917L9.90037 3.70491C11.3757 2.29235 11.3587 -0.0380661 9.91192 -1.43823L5.73937 2.87337ZM5.73937 -0.6178L2.33831 2.67358L6.51086 6.98518L9.91192 3.69379L5.73937 -0.6178ZM2.31526 2.69614C3.26636 1.75569 4.75023 1.78774 5.6656 2.67358L1.49305 6.98518C2.87856 8.32601 5.12266 8.35806 6.53392 6.96262L2.31526 2.69614Z" fill="black" mask="url(#path-1-inside-1_114_16)"/>
</svg>
