<svg width="25" height="22" viewBox="0 0 25 22" fill="none" xmlns="http://www.w3.org/2000/svg">
<path d="M2.34375 10.9375L6.25 10.9375V14.0625C6.25 15.7861 4.84863 17.1875 3.125 17.1875H2.73438C2.08496 17.1875 1.5625 17.71 1.5625 18.3594V20.7031C1.5625 21.3525 2.08496 21.875 2.73438 21.875H3.125C7.44141 21.875 10.9375 18.3789 10.9375 14.0625V2.34375C10.9375 1.0498 9.8877 0 8.59375 0H2.34375C1.0498 0 0 1.0498 0 2.34375L0 8.59375C0 9.8877 1.0498 10.9375 2.34375 10.9375ZM16.4062 10.9375L20.3125 10.9375V14.0625C20.3125 15.7861 18.9111 17.1875 17.1875 17.1875H16.7969C16.1475 17.1875 15.625 17.71 15.625 18.3594V20.7031C15.625 21.3525 16.1475 21.875 16.7969 21.875H17.1875C21.5039 21.875 25 18.3789 25 14.0625L25 2.34375C25 1.0498 23.9502 0 22.6562 0H16.4062C15.1123 0 14.0625 1.0498 14.0625 2.34375V8.59375C14.0625 9.8877 15.1123 10.9375 16.4062 10.9375Z" fill="black"/>
</svg>
